PathFileType	4	(X/Y/Z)	C:/Users/beibeiliu/ov580/test_trc\sequence.36_training_dense_left.trc
DataRate	CameraRate	NumFrames	NumMarkers	Units	OrigDataRate	OrigDataStartFrame	OrigNumFrames
120	120	12	19	mm	120	1	57
Frame#	Time	ThumbCMC			ThumbMCP			ThumbIP			ThumbTip			IndexMCP			IndexPIP			IndexTip			MiddleMCP			MiddlePIP			MiddleTip			RingMCP			RingPIP			RingTip			PinkyMCP			PinkyPIP			PinkyTip			BackHand1			BackHand2			BackHand3	
		X0	Y0	Z0	X1	Y1	Z1	X2	Y2	Z2	X3	Y3	Z3	X4	Y4	Z4	X5	Y5	Z5	X6	Y6	Z6	X7	Y7	Z7	X8	Y8	Z8	X9	Y9	Z9	X10	Y10	Z10	X11	Y11	Z11	X12	Y12	Z12	X13	Y13	Z13	X14	Y14	Z14	X15	Y15	Z15	X16	Y16	Z16	X17	Y17	Z17	X18	Y18	Z18	
0	0	-180.148	41.1505	111.058	-158.173	65.7363	103.076	-134.852	77.6781	87.6408	-105.975	57.8923	83.7334	-134.193	37.9512	50.3331	-111.778	59.1404	47.9016	-120.919	68.5299	83.0147	-117.571	28.2675	50.328	-94.8412	49.9544	56.2981	-110.967	52.2716	89.8385	-105.275	16.9918	58.7146	-85.7917	37.3185	63.4513	-98.4429	47.8163	94.068	-96.7797	1.86088	76.498	-79.1802	22.3151	76.0087	-88.6166	46.3965	96.5258	-142.504	-10.8436	87.8916	-163.17	-21.1858	114.345	-173.146	5.17231	91.2165	
1	0.00833333	-187.057	17.9527	108.473	-174.003	43.9321	92.7496	-153.439	50.9586	76.1564	-124.685	40.924	71.129	-148.364	12.8553	44.2409	-130.105	38.886	41.2178	-141.555	45.5406	73.7453	-131.15	7.07853	42.2912	-114.369	30.5045	42.2423	-127.137	35.3208	79.0942	-114.708	-5.66585	54.7696	-102.752	22.0015	51.5599	-116.659	34.3204	84.761	-108.253	-13.0286	73.9861	-91.3347	14.2142	64.8735	-99.7626	35.9245	83.2115	-144.542	-30.8547	95.1346	-160.777	-37.9818	117.951	-177.299	-17.0984	94.0925	
2	0.0166667	-196.41	-2.43314	110.757	-189.015	20.8011	90.7717	-170.855	30.6649	63.7125	-147.404	22.8123	60.4426	-167.518	-9.56644	36.9941	-151.734	12.2977	32.0784	-161.071	26.6246	60.8799	-146.902	-20.0522	41.0942	-134.233	7.95806	33.452	-144.933	18.7473	66.8262	-133.823	-25.0312	50.2967	-121.244	5.24943	43.0639	-130.834	17.4639	72.6659	-117.556	-31.0039	67.0913	-106.263	-5.01926	53.1467	-117.326	18.4118	68.5147	-149.108	-48.5476	96.4354	-161.793	-51.0782	122.603	-183.153	-38.952	101.599	
3	0.025	-208.384	-13.3697	107.332	-199.904	5.80183	87.1	-188.436	13.3196	61.5978	-166.145	7.88045	51.583	-184.996	-30.5838	38.5356	-175.944	-3.74325	27.5442	-174.072	6.86158	56.5644	-168.507	-38.8745	40.504	-154.911	-10.5877	28.2972	-159.836	1.60746	61.6691	-151.339	-42.4014	44.9485	-140.043	-14.6676	34.826	-146.991	3.02366	58.7265	-137.184	-44.6369	64.0508	-128.374	-23.827	42.252	-133.433	5.06921	55.3552	-160.906	-59.6068	94.6625	-165.608	-62.4817	124.957	-194.542	-51.6802	102.942	
4	0.0333333	-215.19	-15.5807	113.808	-210.418	3.95325	85.3219	-203.352	11.4111	60.124	-179.877	0.333456	44.7556	-209.868	-38.0376	42.6219	-196.085	-17.2391	24.3481	-192.135	3.57861	51.828	-191.519	-46.7132	35.1888	-178.038	-19.4597	25.7532	-175.977	-4.15084	54.548	-168.339	-53.8098	45.1376	-161.719	-25.5439	29.8634	-162.369	-7.22731	57.671	-151.382	-56.3304	58.3622	-149.133	-37.3013	37.9625	-148.93	-5.5642	47.5553	-177.82	-67.3783	96.2495	-184.475	-64.3967	124.431	-208.283	-53.3937	106.856	
5	0.0416667	-223.26	-6.1551	111.864	-216.052	11.8705	88.0492	-208.849	15.3098	59.0752	-190.74	3.03182	42.7792	-230.054	-28.6217	46.3827	-209.731	-10.7144	27.238	-201.724	7.6308	50.5835	-210.141	-42.9461	37.6653	-196.78	-19.9929	22.8031	-185.414	-4.32265	53.3741	-190.949	-53.3723	43.9935	-177.804	-27.9563	28.0426	-172.701	-9.03042	52.0778	-176.215	-58.1106	56.1635	-169.082	-41.7275	35.1949	-161.863	-11.0136	45.3913	-200.73	-61.9103	99.5554	-198.939	-60.6014	126.724	-226.841	-42.4981	110.644	
6	0.05	-224.845	12.2623	114.714	-212.871	28.6614	89.1619	-204.991	30.0659	65.7881	-194.66	13.3823	46.0433	-237.209	-9.15153	44.182	-222.456	6.20891	27.3549	-201.714	18.0215	51.5587	-226.506	-26.2315	37.783	-210.592	-8.36056	21.9219	-191.385	6.09287	53.2946	-214.38	-37.9098	45.5121	-194.943	-21.6309	26.0368	-182.9	-0.909732	53.2767	-196.042	-51.6442	52.9965	-183.662	-31.4277	32.3252	-170.95	-7.36159	44.838	-218.155	-47.0308	98.8658	-214.387	-50.962	127.248	-236.943	-27.1394	113.546	
7	0.0583333	-212.074	28.5159	122.233	-195.772	41.6856	95.4605	-190.619	44.7642	64.018	-186.515	25.5514	44.1922	-234.798	19.8034	47.4272	-210.48	30.0926	30.9276	-190.047	29.7367	54.1437	-231.226	1.43231	38.7847	-208.651	10.2881	23.0147	-188.099	18.736	56.0189	-224.407	-15.2007	43.3036	-198.785	-8.34191	25.1022	-180.192	2.44527	49.7672	-213.668	-34.7582	48.0561	-196.815	-21.7976	30.4173	-172.59	-2.45651	46.5954	-228.673	-31.9422	96.4965	-227.216	-33.6261	123.254	-240.443	0.436718	113.855	
8	0.0666667	-189.435	39.4063	122.129	-171.022	46.2346	96.5289	-166.391	46.9566	70.3777	-172.463	29.0547	47.365	-213.987	48.6769	52.9075	-187.12	46.6009	33.6839	-169.669	41.9419	62.1393	-219.79	32.031	43.602	-191.886	27.6812	24.8653	-174.169	23.2948	55.2875	-220.974	12.0726	40.9072	-195.13	10.2323	23.9645	-173.957	11.6162	52.1098	-219.958	-11.0443	49.9798	-200.043	-3.85682	28.4815	-169.446	-0.460543	44.417	-230.776	-1.19846	93.708	-230.425	-10.3009	123.771	-225.216	25.6728	115.363	
9	0.075	-171.239	37.4258	125.587	-147.072	43.2723	99.5775	-141.61	45.1823	73.6718	-155.745	30.5151	52.4507	-186.804	63.3863	55.5623	-168.819	52.0468	35.274	-153.335	34.8691	62.2116	-198.768	52.1896	44.5233	-175.257	41.2727	26.709	-162.1	23.7924	55.3243	-207.779	36.3089	42.5485	-188.044	22.5002	23.3486	-168.074	11.2668	50.3355	-215.153	13.6104	52.3651	-193.98	9.68637	28.3684	-168.708	1.98352	44.2614	-225.893	18.6652	94.2999	-227.317	12.0518	120.243	-207.443	41.9033	118.741	
10	0.0833333	-151.403	32.6554	126.699	-130.802	28.5455	102.813	-125.25	29.1429	74.5032	-141.688	22.8307	50.347	-159.441	61.2069	57.293	-142.892	46.8626	39.1819	-140.175	24.4499	66.8808	-173.976	56.4543	45.5388	-157.408	38.8356	29.2974	-153.991	14.4354	56.6721	-193.383	41.5822	44.8152	-174.722	26.4045	25.779	-159.977	7.0629	53.0497	-203.176	27.2405	53.8023	-185.078	17.0178	29.815	-165.455	-1.23837	45.6851	-211.094	34.6346	97.0975	-213.493	27.7924	121.551	-187.096	48.3621	119.909	
11	0.0916667	-141.087	17.8961	131.094	-115.821	9.39029	108.098	-110.239	8.40371	79.6485	-129.632	6.11201	58.008	-134.455	48.5039	59.4105	-124.071	27.0772	42.3894	-128.325	7.45719	66.434	-152.244	46.5035	50.3156	-142.342	21.7961	31.2927	-143.394	0.529333	63.5981	-173.825	38.4006	49.1768	-159.025	19.6463	29.6755	-154.529	-5.19283	53.0915	-185.178	29.2629	51.8552	-174.381	13.5851	33.7708	-161.104	-13.9391	50.9876	-193.129	40.8618	97.681	-200.897	33.8951	125.16	-162.854	44.337	120.803	
